<?xml version="1.0" encoding="UTF-8" standalone="no"?>
<!-- Uploaded to: SVG Repo, www.svgrepo.com, Generator: SVG Repo Mixer Tools -->

<svg
   width="800"
   height="800"
   viewBox="0 0 14 14"
   role="img"
   focusable="false"
   aria-hidden="true"
   version="1.1"
   id="svg2"
   xmlns="http://www.w3.org/2000/svg"
   xmlns:svg="http://www.w3.org/2000/svg">
  <defs
     id="defs2" />
  <path
     fill="#4caf50"
     d="m 3.0218148,1.8949996 v 5.9198086 c 0,0.4651276 0.3805591,0.8456867 0.845687,0.8456867 h 5.9198089 c 0.4651273,0 0.8456863,-0.3805591 0.8456863,-0.8456867 V 1.8949996 c 0,-0.4651279 -0.380559,-0.8456869 -0.8456863,-0.8456869 H 3.8675018 c -0.4651279,0 -0.845687,0.380559 -0.845687,0.8456869 z"
     id="path1"
     style="stroke-width:0.634265" />
  <path
     fill="#ffc107"
     d="m 3.1486678,1.472156 1.2685305,1.2685305 c -0.084569,0.126853 -0.1268531,0.2748483 -0.1268531,0.4228434 0,0.4651279 0.3805591,0.845687 0.8456869,0.845687 0.4651279,0 0.845687,-0.3805591 0.845687,-0.845687 0,-0.4651278 -0.3805591,-0.8456869 -0.845687,-0.8456869 -0.1479951,0 -0.2959904,0.042284 -0.4228434,0.1268531 L 3.4446582,1.1761657 C 3.3178052,1.2395922 3.2120944,1.3453031 3.1486678,1.472156 Z m 1.9873643,1.3742414 c 0.1691374,0 0.3171327,0.1479951 0.3171327,0.3171325 0,0.1691375 -0.1479953,0.3171327 -0.3171327,0.3171327 -0.1691374,0 -0.3171325,-0.1479952 -0.3171325,-0.3171327 0,-0.1691374 0.1479951,-0.3171325 0.3171325,-0.3171325 z M 10.506144,8.2376519 9.237614,6.9691213 C 9.322183,6.8422682 9.3644668,6.694273 9.3644668,6.5462778 c 0,-0.4651279 -0.380559,-0.845687 -0.8456869,-0.845687 -0.4651278,0 -0.8456869,0.3805591 -0.8456869,0.845687 0,0.4651278 0.3805591,0.8456869 0.8456869,0.8456869 0.1479953,0 0.2959905,-0.042284 0.4228436,-0.126853 l 1.2685305,1.2685305 c 0.126853,-0.063427 0.232563,-0.1691376 0.29599,-0.2959903 z M 8.5187799,6.8634104 c -0.1691374,0 -0.3171325,-0.1479952 -0.3171325,-0.3171326 0,-0.1691375 0.1479951,-0.3171326 0.3171325,-0.3171326 0.1691375,0 0.3171327,0.1479951 0.3171327,0.3171326 0,0.1691374 -0.1479952,0.3171326 -0.3171327,0.3171326 z M 5.1360321,7.3919647 c 0.4651279,0 0.845687,-0.3805591 0.845687,-0.8456869 0,-0.1479952 -0.042284,-0.2959905 -0.126853,-0.4228435 L 8.0959365,3.8823639 c 0.126853,0.084569 0.2748483,0.126853 0.4228434,0.126853 0.4651279,0 0.8456869,-0.3805591 0.8456869,-0.845687 0,-0.4651278 -0.380559,-0.8456869 -0.8456869,-0.8456869 -0.4651278,0 -0.8456869,0.3805591 -0.8456869,0.8456869 0,0.1479953 0.042285,0.2959905 0.1268531,0.4228436 L 5.5588757,5.8274439 C 5.4320226,5.7428752 5.2840274,5.7005908 5.1360321,5.7005908 c -0.4651278,0 -0.8456869,0.3805591 -0.8456869,0.845687 0,0.4651278 0.3805591,0.8456869 0.8456869,0.8456869 z M 8.5187799,2.8463974 c 0.1691375,0 0.3171327,0.1479951 0.3171327,0.3171325 0,0.1691375 -0.1479952,0.3171327 -0.3171327,0.3171327 -0.1691374,0 -0.3171325,-0.1479952 -0.3171325,-0.3171327 0,-0.1691374 0.1479951,-0.3171325 0.3171325,-0.3171325 z M 5.1360321,6.2291452 c 0.1691374,0 0.3171327,0.1479951 0.3171327,0.3171326 0,0.1691374 -0.1479953,0.3171326 -0.3171327,0.3171326 -0.1691374,0 -0.3171325,-0.1479952 -0.3171325,-0.3171326 0,-0.1691375 0.1479951,-0.3171326 0.3171325,-0.3171326 z"
     id="path2"
     style="stroke-width:0.634265" />
  <text
     xml:space="preserve"
     style="font-weight:bold;font-size:2.76342px;font-family:Monospace;-inkscape-font-specification:'Monospace Bold';text-align:start;letter-spacing:-0.284463px;writing-mode:lr-tb;direction:ltr;text-anchor:start;fill:#ffffff;stroke-width:0.0323838"
     x="-0.075809203"
     y="11.767715"
     id="text18"><tspan
       id="tspan18"
       style="letter-spacing:-0.284463px;fill:#000000;fill-opacity:1;stroke-width:0.0323838"
       x="-0.075809203"
       y="11.767715">PCB DESIGN</tspan></text>
</svg>
