                            <svg version="1.1" xmlns="http://www.w3.org/2000/svg" viewBox="0 0 64 64"><path d="M0 0 C7.28776081 0.62946861 14.02351593 2.55615852 21.03125 4.59765625 C22.26290894 4.95137802 23.49456787 5.30509979 24.7635498 5.66954041 C28.0135024 6.60297108 31.26134933 7.54352673 34.50878906 8.48565674 C37.83272622 9.44858373 41.15863399 10.40465373 44.484375 11.36132812 C50.99140458 13.23461644 57.49644475 15.11468734 64 17 C63.15743983 21.42885696 60.73361974 23.39084935 57.4375 26.25 C51.30904461 31.72087723 45.48654876 37.43985387 39.73413086 43.30371094 C35.89043245 47.19703399 31.92819985 50.86076464 27.78295898 54.4309082 C24.92500042 56.94605262 22.35993073 59.71869474 19.76171875 62.49609375 C18 64 18 64 15 64 C13.03868552 56.2474473 11.08246651 48.49363436 9.13272858 40.73816299 C8.22721556 37.13697992 7.31995778 33.53625534 6.40869141 29.93652344 C5.52923798 26.46218977 4.65439562 22.98672478 3.7827301 19.51042938 C3.44946549 18.18475823 3.11454512 16.85950219 2.77793884 15.5346756 C2.3065544 13.67819738 1.84161316 11.82008675 1.37695312 9.96191406 C1.11047974 8.90490295 0.84400635 7.84789185 0.56945801 6.7588501 C-0 4 -0 4 0 0 Z M3 3 C3.66 6.63 4.32 10.26 5 14 C6.32 13.071875 7.64 12.14375 9 11.1875 C9.7425 10.66542969 10.485 10.14335937 11.25 9.60546875 C11.8275 9.07566406 12.405 8.54585937 13 8 C13 7.01 13 6.02 13 5 C9.7 4.34 6.4 3.68 3 3 Z M18 7 C18.99 10.63 19.98 14.26 21 18 C22.134375 17.05125 23.26875 16.1025 24.4375 15.125 C25.07558594 14.59132813 25.71367187 14.05765625 26.37109375 13.5078125 C28.10805004 12.0777243 28.10805004 12.0777243 29 10 C25.37 9.01 21.74 8.02 18 7 Z M13.37109375 9.53125 C12.73300781 10.1809375 12.09492188 10.830625 11.4375 11.5 C10.79683594 12.1496875 10.15617188 12.799375 9.49609375 13.46875 C9.00238281 13.9740625 8.50867187 14.479375 8 15 C10.3129482 17.3129482 11.47904875 17.49580975 14.625 18.125 C16.06875 18.41375 17.5125 18.7025 19 19 C18.01 15.37 17.02 11.74 16 8 C14.74882927 7.88584524 14.74882927 7.88584524 13.37109375 9.53125 Z M34 12 C34.66 15.63 35.32 19.26 36 23 C37.11375 22.071875 38.2275 21.14375 39.375 20.1875 C40.00148438 19.66542969 40.62796875 19.14335937 41.2734375 18.60546875 C43.2221048 16.91774261 43.2221048 16.91774261 45 14 C41.37 13.34 37.74 12.68 34 12 Z M26.375 15.875 C25.42753906 16.67550781 25.42753906 16.67550781 24.4609375 17.4921875 C22.76804827 18.88947988 22.76804827 18.88947988 23 21 C26.63 21.66 30.26 22.32 34 23 C33.34 19.7 32.68 16.4 32 13 C29.2593051 13 28.42904712 14.10835042 26.375 15.875 Z M46 16 C46 16.66 46 17.32 46 18 C45.4225 18.226875 44.845 18.45375 44.25 18.6875 C41.4336339 20.33038023 39.91922886 22.39533227 38 25 C43.445 26.485 43.445 26.485 49 28 C48.47519999 21.71091518 48.47519999 21.71091518 46 16 Z M49 16 C49.66 19.3 50.32 22.6 51 26 C54.00795167 26.34509128 54.00795167 26.34509128 55.60546875 24.46875 C56.12753906 23.8190625 56.64960937 23.169375 57.1875 22.5 C57.71730469 21.8503125 58.24710938 21.200625 58.79296875 20.53125 C59.19128906 20.0259375 59.58960938 19.520625 60 19 C58.54293274 18.49632243 57.08429904 17.99717444 55.625 17.5 C54.81289063 17.2215625 54.00078125 16.943125 53.1640625 16.65625 C51.05790758 15.90326695 51.05790758 15.90326695 49 16 Z M7 18 C7.12375 19.2375 7.2475 20.475 7.375 21.75 C7.44460937 22.44609375 7.51421875 23.1421875 7.5859375 23.859375 C7.9790407 26.40677111 7.9790407 26.40677111 10 30 C12.64 27.36 15.28 24.72 18 22 C15.30669878 20.20446585 13.8539399 19.57303539 10.8125 18.875 C9.554375 18.58625 8.29625 18.2975 7 18 Z M22 22 C22.99 25.96 23.98 29.92 25 34 C26.134375 33.071875 27.26875 32.14375 28.4375 31.1875 C29.07558594 30.66542969 29.71367187 30.14335937 30.37109375 29.60546875 C32.2548275 27.99165589 32.2548275 27.99165589 33 25 C29.37 24.01 25.74 23.02 22 22 Z M17.15234375 24.75 C16.05599609 25.86375 16.05599609 25.86375 14.9375 27 C13.83728516 28.11375 13.83728516 28.11375 12.71484375 29.25 C11.86599609 30.11625 11.86599609 30.11625 11 31 C13.71939459 32.4576935 16.24754273 33.42442664 19.25 34.125 C21.10625 34.558125 21.10625 34.558125 23 35 C22.01 31.04 21.02 27.08 20 23 C18.69686153 22.88539008 18.69686153 22.88539008 17.15234375 24.75 Z M38 27 C38.12375 28.2375 38.2475 29.475 38.375 30.75 C38.44460937 31.44609375 38.51421875 32.1421875 38.5859375 32.859375 C38.9790407 35.40677111 38.9790407 35.40677111 41 39 C43.64 36.36 46.28 33.72 49 31 C46.30669878 29.20446585 44.8539399 28.57303539 41.8125 27.875 C40.554375 27.58625 39.29625 27.2975 38 27 Z M34 28 C31.69 30.31 29.38 32.62 27 35 C29.3129482 37.3129482 30.47904875 37.49580975 33.625 38.125 C34.85089844 38.37636719 34.85089844 38.37636719 36.1015625 38.6328125 C36.72804688 38.75398438 37.35453125 38.87515625 38 39 C37.71890887 37.35232753 37.42481474 35.70686855 37.125 34.0625 C36.96257813 33.14597656 36.80015625 32.22945312 36.6328125 31.28515625 C36.42398438 30.53105469 36.21515625 29.77695312 36 29 C35.34 28.67 34.68 28.34 34 28 Z M11 34 C11.12375 35.258125 11.2475 36.51625 11.375 37.8125 C11.44460938 38.52019531 11.51421875 39.22789063 11.5859375 39.95703125 C11.92665391 42.29988142 11.92665391 42.29988142 14 45 C17.96 41.535 17.96 41.535 22 38 C19.6870518 35.6870518 18.52095125 35.50419025 15.375 34.875 C14.14910156 34.62363281 14.14910156 34.62363281 12.8984375 34.3671875 C12.27195312 34.24601562 11.64546875 34.12484375 11 34 Z M26 38 C26.66 41.3 27.32 44.6 28 48 C31.00795167 48.34509128 31.00795167 48.34509128 32.60546875 46.46875 C33.12753906 45.8190625 33.64960937 45.169375 34.1875 44.5 C35.115625 43.345 36.04375 42.19 37 41 C33.37 40.01 29.74 39.02 26 38 Z M18.9375 42.5 C18.20402344 43.1496875 17.47054688 43.799375 16.71484375 44.46875 C16.14894531 44.9740625 15.58304688 45.479375 15 46 C17.3129482 48.3129482 18.47904875 48.49580975 21.625 49.125 C23.06875 49.41375 24.5125 49.7025 26 50 C25.34 46.37 24.68 42.74 24 39 C22.00075727 39 20.34007777 41.25326421 18.9375 42.5 Z M14 49 C14.99 52.96 15.98 56.92 17 61 C18.11375 60.071875 19.2275 59.14375 20.375 58.1875 C21.31472656 57.40439453 21.31472656 57.40439453 22.2734375 56.60546875 C24.2221048 54.91774261 24.2221048 54.91774261 26 52 C20.06 50.515 20.06 50.515 14 49 Z " fill="#000000" transform="translate(0,0)"/></svg>
