
                        <svg height="200px" width="200px" version="1.1" id="Layer_1" xmlns="http://www.w3.org/2000/svg" xmlns:xlink="http://www.w3.org/1999/xlink" viewBox="0 0 512 512" xml:space="preserve" fill="#000000"><g id="SVGRepo_bgCarrier" stroke-width="0"></g><g id="SVGRepo_tracerCarrier" stroke-linecap="round" stroke-linejoin="round"></g><g id="SVGRepo_iconCarrier"> <g> <path style="fill:#61add6;" d="M183.246,491.061h-31.767c-5.126,0-9.281-4.156-9.281-9.281c0-5.126,4.156-9.281,9.281-9.281h31.767 c5.126,0,9.281,4.156,9.281,9.281C192.527,486.906,188.372,491.061,183.246,491.061z"></path> <path style="fill:#61add6;" d="M368.465,491.061h-31.767c-5.127,0-9.281-4.156-9.281-9.281c0-5.126,4.154-9.281,9.281-9.281h31.767 c5.127,0,9.281,4.156,9.281,9.281C377.747,486.906,373.593,491.061,368.465,491.061z"></path> </g> <path style="fill:#E88158;" d="M317.341,452.599H202.605c-10.691,0-19.359,8.668-19.359,19.359v20.684 c0,10.691,8.668,19.359,19.359,19.359h114.736c10.691,0,19.359-8.668,19.359-19.359v-20.684 C336.699,461.267,328.032,452.599,317.341,452.599z"></path> <g> <path style="fill:#61add6;" d="M423.944,238.867h-30.833c-5.127,0-9.281,4.156-9.281,9.281s4.154,9.281,9.281,9.281h81.672 c5.127,0,9.281-4.156,9.281-9.281s-4.154-9.281-9.281-9.281h-32.276V46.69c0-5.126-4.154-9.281-9.281-9.281H274.314 c-5.127,0-9.281,4.156-9.281,9.281s4.154,9.281,9.281,9.281h149.63V238.867z"></path> <path style="fill:#61add6;" d="M474.783,271.04h-81.672c-5.127,0-9.281,4.156-9.281,9.281c0,5.126,4.154,9.281,9.281,9.281h30.833 v182.896h-21.05c-5.127,0-9.281,4.156-9.281,9.281c0,5.126,4.154,9.281,9.281,9.281h30.332c5.127,0,9.281-4.156,9.281-9.281 V289.603h32.276c5.127,0,9.281-4.156,9.281-9.281C484.064,275.196,479.91,271.04,474.783,271.04z"></path> <path style="fill:#61add6;" d="M282.947,5.874c-1.884-4.768-7.278-7.106-12.042-5.221l-93.023,36.756H86.719 c-5.126,0-9.281,4.156-9.281,9.281v60.492c-28.019,4.463-49.501,28.796-49.501,58.051c0,20.758,10.817,39.039,27.111,49.501 c-16.293,10.462-27.111,28.743-27.111,49.501s10.817,39.039,27.111,49.501c-16.293,10.462-27.111,28.743-27.111,49.501 c0,29.255,21.482,53.587,49.501,58.051v60.493c0,5.126,4.156,9.281,9.281,9.281h30.332c5.126,0,9.281-4.156,9.281-9.281 c0-5.126-4.156-9.281-9.281-9.281H96v-59.761c0-5.126-4.156-9.281-9.281-9.281c-22.176,0-40.22-18.043-40.22-40.22 s18.043-40.22,40.22-40.22c5.126,0,9.281-4.156,9.281-9.281c0-5.126-4.156-9.281-9.281-9.281c-22.176,0-40.22-18.043-40.22-40.22 s18.043-40.22,40.22-40.22c5.126,0,9.281-4.156,9.281-9.281s-4.156-9.281-9.281-9.281c-22.176,0-40.22-18.043-40.22-40.22 c0-10.743,4.183-20.842,11.78-28.44c7.596-7.596,17.697-11.78,28.44-11.78c2.461,0,4.823-0.978,6.563-2.719 c1.741-1.74,2.719-4.101,2.719-6.563v-59.76h83.648c1.167,0,2.324-0.22,3.411-0.65l94.666-37.406 C282.492,16.032,284.83,10.641,282.947,5.874z"></path> <path style="fill:#61add6;" d="M134.266,458.994c-12.563,0-22.785,10.221-22.785,22.785s10.221,22.785,22.785,22.785 s22.785-10.221,22.785-22.785S146.829,458.994,134.266,458.994z"></path> <path style="fill:#61add6;" d="M385.677,458.994c-12.563,0-22.784,10.221-22.784,22.785s10.221,22.785,22.784,22.785 c12.563,0,22.785-10.221,22.785-22.785S398.242,458.994,385.677,458.994z"></path> </g> </g></svg>

