<?xml version="1.0" encoding="UTF-8" standalone="no"?>
<!-- Uploaded to: SVG Repo, www.svgrepo.com, Generator: SVG Repo Mixer Tools -->

<svg
   width="800"
   height="800"
   viewBox="0 0 48 48"
   version="1"
   enable-background="new 0 0 48 48"
   id="svg3"
   xmlns="http://www.w3.org/2000/svg"
   xmlns:svg="http://www.w3.org/2000/svg">
  <defs
     id="defs3" />
  <path
     fill="#ff9800"
     d="M 44,18 V 14 H 34 V 4 H 30 V 14 H 26 V 4 H 22 V 14 H 18 V 4 H 14 V 14 H 4 v 4 h 10 v 4 H 4 v 4 h 10 v 4 H 4 v 4 h 10 v 10 h 4 V 34 h 4 v 10 h 4 V 34 h 4 v 10 h 4 V 34 H 44 V 30 H 34 V 26 H 44 V 22 H 34 v -4 z"
     id="path1" />
  <path
     fill="#4caf50"
     d="m 8,12 v 24 c 0,2.2 1.8,4 4,4 h 24 c 2.2,0 4,-1.8 4,-4 V 12 C 40,9.8 38.2,8 36,8 H 12 C 9.8,8 8,9.8 8,12 Z"
     id="path2" />
  <path
     fill="#37474f"
     d="M 31,31 H 17 c -1.1,0 -2,-0.9 -2,-2 V 19 c 0,-1.1 0.9,-2 2,-2 h 14 c 1.1,0 2,0.9 2,2 v 10 c 0,1.1 -0.9,2 -2,2 z"
     id="path3" />
  <text
     xml:space="preserve"
     style="font-weight:bold;font-size:10.0398px;font-family:Monospace;-inkscape-font-specification:'Monospace Bold';text-align:start;letter-spacing:-0.852px;writing-mode:lr-tb;direction:ltr;text-anchor:start;fill:#000000;stroke-width:0.117654"
     x="15.880876"
     y="27.735991"
     id="text3"><tspan
       id="tspan3"
       style="letter-spacing:-0.852px;fill:#ffffff;fill-opacity:1;stroke-width:0.117654"
       x="15.880876"
       y="27.735991">ARM</tspan></text>
</svg>
