<?xml version="1.0" encoding="UTF-8"?>
<svg id="Calque_1" data-name="Calque 1" xmlns="http://www.w3.org/2000/svg" viewBox="0 0 278 293.03">
  <defs>
    <style>
      .cls-1 {
        fill: #fff;
        font-family: Algerian, Algerian;
        font-size: 258px;
      }
    </style>
  </defs>
  <g>
    <rect x=".5" y=".5" width="277" height="277" rx="32.5" ry="32.5"/>
    <path d="m245,1c17.64,0,32,14.36,32,32v212c0,17.64-14.36,32-32,32H33c-17.64,0-32-14.36-32-32V33C1,15.36,15.36,1,33,1h212m0-1H33C14.77,0,0,14.77,0,33v212c0,18.23,14.77,33,33,33h212c18.23,0,33-14.77,33-33V33c0-18.23-14.77-33-33-33h0Z"/>
  </g>
  <text class="cls-1" transform="translate(70.34 226.13)"><tspan x="0" y="0">P</tspan></text>
</svg>